<mxfile host="Electron" modified="2024-05-12T13:47:35.155Z" agent="Mozilla/5.0 (X11; Linux x86_64) AppleWebKit/537.36 (KHTML, like Gecko) draw.io/24.2.5 Chrome/120.0.6099.109 Electron/28.1.0 Safari/537.36" etag="JVapnRPS0EsZkdtMQHxP" version="24.2.5" type="device">
  <diagram name="Страница — 1" id="c8JkWPvddxATss24pUBj">
    <mxGraphModel dx="1114" dy="1027" grid="1" gridSize="10" guides="1" tooltips="1" connect="1" arrows="1" fold="1" page="1" pageScale="1" pageWidth="827" pageHeight="1169" math="0" shadow="0">
      <root>
        <mxCell id="0" />
        <mxCell id="1" parent="0" />
        <mxCell id="3YsPAv_4BOveMF74R4s5-1" value="" style="rounded=1;whiteSpace=wrap;html=1;arcSize=5;" vertex="1" parent="1">
          <mxGeometry x="24" y="45" width="780" height="560" as="geometry" />
        </mxCell>
        <mxCell id="3YsPAv_4BOveMF74R4s5-2" value="" style="rounded=1;whiteSpace=wrap;html=1;" vertex="1" parent="1">
          <mxGeometry x="50" y="90" width="210" height="490" as="geometry" />
        </mxCell>
        <mxCell id="3YsPAv_4BOveMF74R4s5-4" value="&lt;b&gt;&lt;font style=&quot;font-size: 20px;&quot;&gt;Numismatic platform&lt;/font&gt;&lt;/b&gt;" style="text;html=1;align=center;verticalAlign=middle;whiteSpace=wrap;rounded=0;" vertex="1" parent="1">
          <mxGeometry x="40" y="60" width="740" height="30" as="geometry" />
        </mxCell>
        <mxCell id="3YsPAv_4BOveMF74R4s5-6" value="&lt;b&gt;&lt;font style=&quot;font-size: 15px;&quot;&gt;Разделы&lt;/font&gt;&lt;/b&gt;" style="text;html=1;align=center;verticalAlign=middle;whiteSpace=wrap;rounded=1;fillColor=#e1d5e7;strokeColor=#9673a6;arcSize=10;" vertex="1" parent="1">
          <mxGeometry x="70" y="110" width="160" height="30" as="geometry" />
        </mxCell>
        <mxCell id="3YsPAv_4BOveMF74R4s5-7" value="&lt;h3 style=&quot;padding-left: 5px;&quot;&gt;Иностранные монеты&lt;/h3&gt;&lt;h3 style=&quot;padding-left: 0px;&quot;&gt;&lt;span style=&quot;white-space: pre;&quot;&gt;&#x9;&lt;/span&gt;Германия&lt;br&gt;&lt;/h3&gt;&lt;h3 style=&quot;padding-right: 0px;&quot;&gt;&lt;span style=&quot;white-space: pre;&quot;&gt;&#x9;&lt;/span&gt;Франция&lt;/h3&gt;&lt;h3 style=&quot;padding-left: 5px;&quot;&gt;Отечественные монеты&lt;br&gt;&lt;/h3&gt;&lt;h3 style=&quot;padding-left: 5px;&quot;&gt;&lt;span style=&quot;white-space: pre;&quot;&gt;&#x9;&lt;/span&gt;Царская Россия&lt;/h3&gt;&lt;h3 style=&quot;padding-left: 5px;&quot;&gt;&lt;span style=&quot;white-space: pre;&quot;&gt;&#x9;&lt;/span&gt;СССР&lt;/h3&gt;&lt;h3 style=&quot;padding-left: 5px;&quot;&gt;&lt;span style=&quot;white-space: pre;&quot;&gt;&#x9;&lt;/span&gt;&lt;font color=&quot;#3333ff&quot;&gt;РФ&lt;/font&gt;&lt;/h3&gt;&lt;div style=&quot;&quot;&gt;&lt;br&gt;&lt;/div&gt;" style="text;html=1;align=left;verticalAlign=middle;whiteSpace=wrap;rounded=0;" vertex="1" parent="1">
          <mxGeometry x="60" y="160" width="180" height="240" as="geometry" />
        </mxCell>
        <mxCell id="3YsPAv_4BOveMF74R4s5-11" value="Описание монеты" style="rounded=1;whiteSpace=wrap;html=1;" vertex="1" parent="1">
          <mxGeometry x="280" y="110" width="500" height="130" as="geometry" />
        </mxCell>
        <mxCell id="3YsPAv_4BOveMF74R4s5-13" value="Описание монеты" style="rounded=1;whiteSpace=wrap;html=1;" vertex="1" parent="1">
          <mxGeometry x="280" y="260" width="500" height="130" as="geometry" />
        </mxCell>
        <mxCell id="3YsPAv_4BOveMF74R4s5-14" value="Описание банкноты" style="rounded=1;whiteSpace=wrap;html=1;" vertex="1" parent="1">
          <mxGeometry x="280" y="410" width="500" height="140" as="geometry" />
        </mxCell>
        <mxCell id="3YsPAv_4BOveMF74R4s5-15" value="Фото&lt;br&gt;&lt;div&gt;монеты&lt;/div&gt;" style="ellipse;whiteSpace=wrap;html=1;aspect=fixed;" vertex="1" parent="1">
          <mxGeometry x="300" y="135" width="80" height="80" as="geometry" />
        </mxCell>
        <mxCell id="3YsPAv_4BOveMF74R4s5-16" value="Фото&lt;br&gt;монеты" style="ellipse;whiteSpace=wrap;html=1;aspect=fixed;" vertex="1" parent="1">
          <mxGeometry x="300" y="285" width="80" height="80" as="geometry" />
        </mxCell>
        <mxCell id="3YsPAv_4BOveMF74R4s5-18" value="Фото&lt;div&gt;банкноты&lt;/div&gt;" style="rounded=0;whiteSpace=wrap;html=1;" vertex="1" parent="1">
          <mxGeometry x="294" y="450" width="120" height="60" as="geometry" />
        </mxCell>
        <mxCell id="3YsPAv_4BOveMF74R4s5-19" value="Действия" style="rounded=1;whiteSpace=wrap;html=1;fillColor=#FFCC99;" vertex="1" parent="1">
          <mxGeometry x="650" y="200" width="120" height="30" as="geometry" />
        </mxCell>
        <mxCell id="3YsPAv_4BOveMF74R4s5-20" value="Действия" style="rounded=1;whiteSpace=wrap;html=1;fillColor=#FFCC99;" vertex="1" parent="1">
          <mxGeometry x="650" y="350" width="120" height="30" as="geometry" />
        </mxCell>
        <mxCell id="3YsPAv_4BOveMF74R4s5-21" value="Действия" style="rounded=1;whiteSpace=wrap;html=1;fillColor=#FFCC99;" vertex="1" parent="1">
          <mxGeometry x="650" y="510" width="120" height="30" as="geometry" />
        </mxCell>
      </root>
    </mxGraphModel>
  </diagram>
</mxfile>
